<svg width="30" height="22" viewBox="0 0 30 22" fill="none" xmlns="http://www.w3.org/2000/svg">
<path d="M16 5.33333C16 2.38667 13.6133 0 10.6667 0C7.72 0 5.33333 2.38667 5.33333 5.33333C5.33333 8.28 7.72 10.6667 10.6667 10.6667C13.6133 10.6667 16 8.28 16 5.33333ZM13.3333 5.33333C13.3333 6.8 12.1333 8 10.6667 8C9.2 8 8 6.8 8 5.33333C8 3.86667 9.2 2.66667 10.6667 2.66667C12.1333 2.66667 13.3333 3.86667 13.3333 5.33333ZM0 18.6667V21.3333H21.3333V18.6667C21.3333 15.12 14.2267 13.3333 10.6667 13.3333C7.10667 13.3333 0 15.12 0 18.6667ZM2.66667 18.6667C2.93333 17.72 7.06667 16 10.6667 16C14.2533 16 18.3733 17.7067 18.6667 18.6667H2.66667ZM25.3333 14.6667V10.6667H29.3333V8H25.3333V4H22.6667V8H18.6667V10.6667H22.6667V14.6667H25.3333Z" fill="#0D4D00"/>
</svg>
