<svg width="23" height="23" viewBox="0 0 23 23" fill="none" xmlns="http://www.w3.org/2000/svg">
<path d="M22.2576 12.1748C20.0002 7.59834 11.9628 7.35157 13.9038 0.699983C14.0476 0.206442 13.3718 -0.17493 12.8255 0.083057C7.60613 2.48346 3.85339 7.29549 7.00224 13.5994C7.26105 14.1153 6.48462 14.5977 5.92387 14.2611C3.32139 12.7244 3.0482 10.5147 3.27826 8.93315C3.36453 8.34987 2.3868 8.06945 1.96983 8.55177C0.992104 9.71832 0 11.6028 0 14.4406C0.546376 20.722 7.34732 22.6513 9.79163 22.8981C13.2856 23.2458 17.0671 22.7411 19.7846 20.8006C22.7753 18.6357 23.868 15.1809 22.2576 12.1748ZM8.91456 17.8169C10.985 17.4243 12.049 16.2577 12.3366 15.2258C12.8111 13.6218 10.9563 12.0514 12.2072 9.51642C12.6817 11.614 16.9089 12.9263 16.9089 15.2146C17.0239 18.0524 13.0843 20.4865 8.91456 17.8169Z" fill="#0D4D00"/>
</svg>
