<svg width="20" height="16" viewBox="0 0 20 16" fill="none" xmlns="http://www.w3.org/2000/svg">
<path d="M10.0041 3.41634C12.3041 3.41634 14.1707 5.28301 14.1707 7.58301C14.1707 8.12467 14.0624 8.63301 13.8707 9.10801L16.3041 11.5413C17.5624 10.4913 18.5541 9.13301 19.1624 7.58301C17.7207 3.92467 14.1624 1.33301 9.99574 1.33301C8.82907 1.33301 7.7124 1.54134 6.67907 1.91634L8.47907 3.71634C8.95407 3.52467 9.4624 3.41634 10.0041 3.41634ZM1.67074 1.14134L3.95407 3.42467C2.57074 4.49967 1.4874 5.93301 0.837402 7.58301C2.27907 11.2413 5.8374 13.833 10.0041 13.833C11.2957 13.833 12.5291 13.583 13.6541 13.133L14.0041 13.483L16.4457 15.9163L17.5041 14.858L2.72907 0.0830078L1.67074 1.14134ZM6.27907 5.74967L7.57074 7.04134C7.52907 7.21634 7.50407 7.39967 7.50407 7.58301C7.50407 8.96634 8.62074 10.083 10.0041 10.083C10.1874 10.083 10.3707 10.058 10.5457 10.0163L11.8374 11.308C11.2791 11.583 10.6624 11.7497 10.0041 11.7497C7.70407 11.7497 5.8374 9.88301 5.8374 7.58301C5.8374 6.92467 6.00407 6.30801 6.27907 5.74967ZM9.87074 5.09967L12.4957 7.72467L12.5124 7.59134C12.5124 6.20801 11.3957 5.09134 10.0124 5.09134L9.87074 5.09967Z" fill="#0D4D00"/>
</svg>
