<svg width="27" height="27" viewBox="0 0 27 27" fill="none" xmlns="http://www.w3.org/2000/svg">
<path d="M13.3333 0C5.98667 0 0 5.98667 0 13.3333C0 20.68 5.98667 26.6667 13.3333 26.6667C20.68 26.6667 26.6667 20.68 26.6667 13.3333C26.6667 5.98667 20.68 0 13.3333 0ZM13.3333 24C7.45333 24 2.66667 19.2133 2.66667 13.3333C2.66667 7.45333 7.45333 2.66667 13.3333 2.66667C19.2133 2.66667 24 7.45333 24 13.3333C24 19.2133 19.2133 24 13.3333 24ZM16.7867 8.78667L18.6667 10.6667L13.3333 16L8 10.6667L9.88 8.78667L12 10.8933V5.33333H14.6667V10.8933L16.7867 8.78667ZM20 20H6.66667V17.3333H20V20Z" fill="#005232"/>
</svg>
