<?xml version="1.0" standalone="no"?>
<!DOCTYPE svg PUBLIC "-//W3C//DTD SVG 20010904//EN"
 "http://www.w3.org/TR/2001/REC-SVG-20010904/DTD/svg10.dtd">
<svg version="1.0" xmlns="http://www.w3.org/2000/svg"
 width="41.000000pt" height="79.000000pt" viewBox="0 0 41.000000 79.000000"
 preserveAspectRatio="xMidYMid meet">
<metadata>
Created by potrace 1.10, written by Peter Selinger 2001-2011
</metadata>
<g transform="translate(0.000000,79.000000) scale(0.100000,-0.100000)"
fill="#000000" stroke="none">
<path d="M174 660 c-21 -16 -47 -30 -57 -30 -10 0 -29 -11 -42 -25 -20 -19
-25 -34 -25 -76 0 -30 7 -63 17 -80 16 -26 16 -29 0 -47 -12 -13 -17 -36 -17
-74 0 -77 23 -98 111 -98 57 0 70 4 105 30 21 16 47 30 57 30 10 0 29 11 42
25 21 20 25 34 25 81 0 40 -5 63 -17 76 -16 18 -16 21 0 47 10 17 17 50 17 78
0 72 -25 93 -111 93 -57 0 -70 -4 -105 -30z m176 -68 l0 -68 -65 4 -65 4 0
-36 0 -36 65 0 65 0 0 -65 0 -65 -33 0 c-24 0 -41 -8 -61 -29 -25 -26 -36 -30
-97 -33 l-69 -3 0 65 0 66 65 -4 65 -4 0 36 0 36 -65 0 -65 0 0 65 0 65 33 0
c24 0 41 8 62 30 24 25 36 30 94 33 36 2 67 4 69 5 1 1 2 -29 2 -66z"/>
</g>
</svg>
