<svg width="28" height="18" viewBox="0 0 28 18" fill="none" xmlns="http://www.w3.org/2000/svg">
<path d="M19.625 10.25C18.125 10.25 15.7875 10.675 14 11.5C12.2125 10.6625 9.875 10.25 8.375 10.25C5.6625 10.25 0.25 11.6 0.25 14.3125V17.75H27.75V14.3125C27.75 11.6 22.3375 10.25 19.625 10.25ZM14.625 15.875H2.125V14.3125C2.125 13.6375 5.325 12.125 8.375 12.125C11.425 12.125 14.625 13.6375 14.625 14.3125V15.875ZM25.875 15.875H16.5V14.3125C16.5 13.7375 16.25 13.2375 15.85 12.7875C16.95 12.4125 18.3 12.125 19.625 12.125C22.675 12.125 25.875 13.6375 25.875 14.3125V15.875ZM8.375 9C10.7875 9 12.75 7.0375 12.75 4.625C12.75 2.2125 10.7875 0.25 8.375 0.25C5.9625 0.25 4 2.2125 4 4.625C4 7.0375 5.9625 9 8.375 9ZM8.375 2.125C9.75 2.125 10.875 3.25 10.875 4.625C10.875 6 9.75 7.125 8.375 7.125C7 7.125 5.875 6 5.875 4.625C5.875 3.25 7 2.125 8.375 2.125ZM19.625 9C22.0375 9 24 7.0375 24 4.625C24 2.2125 22.0375 0.25 19.625 0.25C17.2125 0.25 15.25 2.2125 15.25 4.625C15.25 7.0375 17.2125 9 19.625 9ZM19.625 2.125C21 2.125 22.125 3.25 22.125 4.625C22.125 6 21 7.125 19.625 7.125C18.25 7.125 17.125 6 17.125 4.625C17.125 3.25 18.25 2.125 19.625 2.125Z" fill="white"/>
</svg>